<svg width="156" height="46" viewBox="0 0 156 46" fill="none" xmlns="http://www.w3.org/2000/svg">
<path d="M142.887 0.0001495H12.3701C11.8944 0.0001495 11.4243 0.0001495 10.9498 0.00244949C10.5526 0.00474948 10.1586 0.011431 9.75761 0.0170544C8.88644 0.0261415 8.01731 0.0940769 7.15779 0.22027C6.29947 0.349211 5.46804 0.592301 4.69162 0.941318C3.91615 1.29329 3.20758 1.75064 2.59161 2.29677C1.97241 2.84137 1.45626 3.47086 1.06301 4.16102C0.668671 4.84981 0.395235 5.58791 0.252146 6.34983C0.107697 7.11079 0.0299674 7.88052 0.0196553 8.65212C0.00761563 9.00471 0.0063442 9.35847 0 9.71111V36.2924C0.0063442 36.6495 0.00761563 36.9954 0.0196553 37.3526C0.0299706 38.1242 0.1077 38.8939 0.252146 39.6548C0.39484 40.4171 0.668292 41.1557 1.06301 41.8447C1.45608 42.5326 1.97231 43.1596 2.59161 43.7012C3.20524 44.2497 3.91427 44.7074 4.69162 45.0567C5.46803 45.4066 6.29937 45.6511 7.15779 45.7821C8.01746 45.9073 8.88649 45.9752 9.75761 45.9854C10.1586 45.9932 10.5526 45.9977 10.9498 45.9977C11.4243 46 11.8944 46 12.3701 46H142.887C143.353 46 143.827 46 144.293 45.9977C144.689 45.9977 145.094 45.9932 145.489 45.9854C146.359 45.9758 147.226 45.9078 148.084 45.7821C148.945 45.6502 149.78 45.4058 150.56 45.0567C151.336 44.7072 152.045 44.2495 152.658 43.7012C153.276 43.1575 153.793 42.531 154.191 41.8447C154.583 41.1552 154.853 40.4167 154.994 39.6548C155.139 38.8938 155.219 38.1242 155.235 37.3526C155.24 36.9954 155.24 36.6495 155.24 36.2924C155.25 35.8746 155.25 35.4591 155.25 35.0346V10.9667C155.25 10.5455 155.25 10.1278 155.24 9.71111C155.24 9.35847 155.24 9.00471 155.235 8.65208C155.219 7.88041 155.139 7.11085 154.994 6.34979C154.853 5.58831 154.582 4.85026 154.191 4.16097C153.39 2.77762 152.12 1.65157 150.56 0.941214C149.78 0.59305 148.945 0.350025 148.084 0.220167C147.226 0.0934174 146.359 0.0254583 145.489 0.0168934C145.094 0.0112815 144.689 0.00454249 144.293 0.00229999C143.827 0 143.353 0 142.887 0V0.0001495Z" fill="#A6A6A6"/>
<path d="M10.971 44.8477C10.5758 44.8477 10.1901 44.8433 9.79803 44.8355C8.98577 44.8262 8.17541 44.7639 7.37359 44.6492C6.62593 44.5357 5.90166 44.3248 5.22465 44.0232C4.55385 43.7242 3.94203 43.332 3.41262 42.8618C2.87555 42.3972 2.42841 41.8583 2.08893 41.2664C1.74571 40.6708 1.50818 40.0323 1.38461 39.3732C1.25117 38.665 1.17898 37.949 1.16865 37.2312C1.16042 36.9902 1.14966 36.188 1.14966 36.188V9.79739C1.14966 9.79739 1.16112 9.00751 1.16871 8.77545C1.1786 8.05878 1.25038 7.34382 1.38342 6.63675C1.50721 5.97588 1.74493 5.33555 2.08833 4.73792C2.42657 4.14651 2.87122 3.60719 3.40506 3.14087C3.9383 2.67013 4.55208 2.27597 5.22402 1.97278C5.89947 1.67219 6.62237 1.46271 7.36852 1.35137C8.17297 1.23549 8.98614 1.17284 9.80122 1.16394L10.9716 1.14999H144.271L145.456 1.1645C146.263 1.17296 147.069 1.23505 147.866 1.35025C148.62 1.46299 149.35 1.67393 150.034 1.97613C151.38 2.58715 152.475 3.55384 153.166 4.74071C153.504 5.33421 153.738 5.96932 153.86 6.62448C153.995 7.33735 154.07 8.05793 154.086 8.78047C154.089 9.10401 154.089 9.45153 154.089 9.79739C154.1 10.2258 154.1 10.6336 154.1 11.0447V34.9541C154.1 35.3691 154.1 35.7741 154.089 36.1824C154.089 36.5539 154.089 36.8943 154.084 37.2445C154.069 37.9542 153.995 38.6619 153.863 39.362C153.742 40.0258 153.505 40.6693 153.162 41.2699C152.82 41.8553 152.376 42.3895 151.845 42.8529C151.315 43.3256 150.702 43.7201 150.03 44.0211C149.349 44.3249 148.619 44.5367 147.866 44.6492C147.064 44.7645 146.254 44.8268 145.442 44.8355C145.062 44.8433 144.664 44.8477 144.278 44.8477L142.872 44.85L10.971 44.8477Z" fill="black"/>
<path d="M56.2061 31.283H50.7627L49.4555 35.1429H47.1499L52.3058 20.8622H54.7012L59.8571 35.1429H57.5122L56.2061 31.283ZM51.3265 29.5018H55.6413L53.5142 23.2375H53.4547L51.3265 29.5018Z" fill="white"/>
<path d="M70.9926 29.9376C70.9926 33.1731 69.2609 35.2519 66.6476 35.2519C65.9856 35.2865 65.3272 35.134 64.7478 34.8118C64.1685 34.4897 63.6916 34.0109 63.3717 33.4303H63.3222V38.5873H61.1851V24.7312H63.2537V26.4629H63.293C63.6276 25.8851 64.1126 25.4088 64.6964 25.0847C65.2802 24.7605 65.9409 24.6007 66.6083 24.6223C69.2507 24.6223 70.9926 26.7111 70.9926 29.9376ZM68.796 29.9376C68.796 27.8297 67.7066 26.4438 66.0445 26.4438C64.4116 26.4438 63.3133 27.8589 63.3133 29.9376C63.3133 32.0355 64.4116 33.4404 66.0445 33.4404C67.7066 33.4404 68.796 32.0647 68.796 29.9376Z" fill="white"/>
<path d="M82.4516 29.9376C82.4516 33.1731 80.7199 35.2519 78.1066 35.2519C77.4446 35.2865 76.7862 35.134 76.2068 34.8118C75.6275 34.4897 75.1505 34.0109 74.8306 33.4303H74.7812V38.5873H72.644V24.7312H74.7127V26.4629H74.752C75.0866 25.8851 75.5716 25.4088 76.1553 25.0846C76.7391 24.7605 77.3998 24.6007 78.0672 24.6223C80.7098 24.6223 82.4516 26.7111 82.4516 29.9376ZM80.2549 29.9376C80.2549 27.8297 79.1656 26.4438 77.5035 26.4438C75.8706 26.4438 74.7722 27.8589 74.7722 29.9376C74.7722 32.0355 75.8706 33.4404 77.5035 33.4404C79.1656 33.4404 80.2549 32.0647 80.2549 29.9376H80.2549Z" fill="white"/>
<path d="M90.0256 31.1639C90.184 32.5801 91.5597 33.5099 93.4397 33.5099C95.241 33.5099 96.537 32.5801 96.537 31.3031C96.537 30.1947 95.7554 29.531 93.9046 29.0761L92.0538 28.6303C89.4315 27.9969 88.2141 26.7705 88.2141 24.7805C88.2141 22.3165 90.3614 20.6241 93.4105 20.6241C96.4281 20.6241 98.4967 22.3165 98.5664 24.7805H96.409C96.2798 23.3554 95.1017 22.4951 93.3801 22.4951C91.6585 22.4951 90.4804 23.3655 90.4804 24.6323C90.4804 25.6419 91.2329 26.236 93.0735 26.6908L94.6469 27.0771C97.5769 27.77 98.7943 28.947 98.7943 31.0358C98.7943 33.7075 96.6661 35.3809 93.2813 35.3809C90.1143 35.3809 87.976 33.7468 87.8379 31.1638L90.0256 31.1639Z" fill="white"/>
<path d="M103.406 22.2671V24.7311H105.386V26.4235H103.406V32.1634C103.406 33.0551 103.803 33.4706 104.673 33.4706C104.908 33.4665 105.143 33.45 105.376 33.4212V35.1035C104.985 35.1766 104.587 35.2097 104.189 35.2023C102.081 35.2023 101.259 34.4106 101.259 32.3913V26.4235H99.7451V24.7311H101.259V22.2671H103.406Z" fill="white"/>
<path d="M106.533 29.9375C106.533 26.6616 108.462 24.6031 111.471 24.6031C114.489 24.6031 116.41 26.6616 116.41 29.9375C116.41 33.2224 114.5 35.272 111.471 35.272C108.443 35.272 106.533 33.2224 106.533 29.9375ZM114.232 29.9375C114.232 27.6903 113.202 26.364 111.471 26.364C109.739 26.364 108.71 27.7004 108.71 29.9375C108.71 32.1937 109.739 33.5099 111.471 33.5099C113.202 33.5099 114.232 32.1937 114.232 29.9375H114.232Z" fill="white"/>
<path d="M118.172 24.7311H120.21V26.5032H120.26C120.398 25.9498 120.722 25.4606 121.178 25.1181C121.634 24.7755 122.194 24.6004 122.764 24.6221C123.01 24.6213 123.256 24.648 123.496 24.7019V26.7009C123.185 26.6059 122.861 26.5623 122.536 26.5718C122.226 26.5592 121.916 26.6139 121.629 26.7322C121.341 26.8505 121.083 27.0296 120.872 27.2572C120.66 27.4848 120.5 27.7554 120.403 28.0506C120.306 28.3458 120.274 28.6585 120.309 28.9672V35.1428H118.172L118.172 24.7311Z" fill="white"/>
<path d="M133.35 32.0848C133.063 33.9748 131.222 35.272 128.867 35.272C125.838 35.272 123.958 33.2426 123.958 29.9869C123.958 26.7211 125.848 24.6031 128.777 24.6031C131.658 24.6031 133.469 26.5819 133.469 29.7387V30.471H126.115V30.6001C126.081 30.9833 126.129 31.3693 126.256 31.7325C126.383 32.0957 126.585 32.4278 126.85 32.7068C127.115 32.9857 127.436 33.2051 127.793 33.3503C128.149 33.4956 128.532 33.5634 128.916 33.5492C129.421 33.5965 129.928 33.4796 130.361 33.2157C130.795 32.9519 131.131 32.5552 131.321 32.0848L133.35 32.0848ZM126.125 28.9773H131.331C131.35 28.6328 131.298 28.288 131.177 27.9646C131.057 27.6412 130.871 27.3462 130.631 27.0981C130.391 26.8499 130.103 26.6541 129.784 26.5227C129.465 26.3914 129.122 26.3274 128.777 26.3348C128.429 26.3327 128.084 26.3996 127.762 26.5315C127.44 26.6635 127.147 26.8579 126.901 27.1036C126.654 27.3493 126.459 27.6413 126.326 27.9629C126.193 28.2845 126.125 28.6293 126.125 28.9773V28.9773Z" fill="white"/>
<path d="M51.0586 10.1131C51.5067 10.0809 51.9563 10.1486 52.375 10.3112C52.7937 10.4739 53.1712 10.7274 53.48 11.0536C53.7889 11.3798 54.0215 11.7704 54.1611 12.1974C54.3008 12.6243 54.3439 13.077 54.2874 13.5226C54.2874 15.7148 53.1026 16.9749 51.0586 16.9749H48.5801V10.1131H51.0586ZM49.6458 16.0045H50.9396C51.2597 16.0236 51.5802 15.9711 51.8775 15.8508C52.1748 15.7305 52.4415 15.5454 52.6583 15.309C52.8751 15.0726 53.0364 14.7909 53.1305 14.4843C53.2247 14.1777 53.2493 13.8539 53.2025 13.5366C53.2459 13.2205 53.2188 12.8988 53.1232 12.5944C53.0276 12.2901 52.8659 12.0106 52.6496 11.7761C52.4334 11.5416 52.1679 11.3578 51.8722 11.2379C51.5766 11.1181 51.2581 11.0651 50.9396 11.0827H49.6458V16.0045Z" fill="white"/>
<path d="M55.4906 14.3835C55.458 14.0431 55.4969 13.6998 55.6048 13.3754C55.7128 13.051 55.8873 12.7528 56.1172 12.4998C56.3471 12.2468 56.6274 12.0447 56.94 11.9064C57.2527 11.7681 57.5908 11.6966 57.9326 11.6966C58.2745 11.6966 58.6126 11.7681 58.9252 11.9064C59.2378 12.0447 59.5181 12.2468 59.748 12.4998C59.9779 12.7528 60.1525 13.051 60.2604 13.3754C60.3683 13.6998 60.4072 14.0431 60.3747 14.3835C60.4078 14.7241 60.3694 15.0679 60.2617 15.3928C60.1541 15.7177 59.9797 16.0165 59.7497 16.27C59.5197 16.5235 59.2392 16.726 58.9263 16.8646C58.6134 17.0033 58.2749 17.0749 57.9326 17.0749C57.5903 17.0749 57.2519 17.0033 56.9389 16.8646C56.626 16.726 56.3455 16.5235 56.1155 16.27C55.8855 16.0165 55.7111 15.7177 55.6035 15.3928C55.4958 15.0679 55.4574 14.7241 55.4906 14.3835ZM59.3235 14.3835C59.3235 13.261 58.8192 12.6046 57.9343 12.6046C57.046 12.6046 56.5463 13.261 56.5463 14.3835C56.5463 15.5149 57.046 16.1663 57.9343 16.1663C58.8193 16.1663 59.3235 15.5104 59.3235 14.3835H59.3235Z" fill="white"/>
<path d="M66.8678 16.9748H65.8076L64.7373 13.1609H64.6565L63.5907 16.9748H62.5407L61.1133 11.7964H62.1499L63.0775 15.7478H63.1539L64.2185 11.7964H65.1989L66.2636 15.7478H66.3444L67.2676 11.7964H68.2895L66.8678 16.9748Z" fill="white"/>
<path d="M69.4902 11.7965H70.474V12.6191H70.5504C70.6799 12.3237 70.8984 12.076 71.1754 11.9106C71.4524 11.7452 71.7741 11.6704 72.0957 11.6965C72.3477 11.6776 72.6007 11.7156 72.8359 11.8077C73.0712 11.8998 73.2828 12.0437 73.4549 12.2286C73.627 12.4136 73.7554 12.6349 73.8303 12.8762C73.9053 13.1175 73.9251 13.3726 73.8881 13.6225V16.9748H72.8661V13.8792C72.8661 13.047 72.5045 12.6332 71.7487 12.6332C71.5776 12.6252 71.4068 12.6543 71.2481 12.7185C71.0893 12.7827 70.9463 12.8805 70.8289 13.0051C70.7114 13.1298 70.6223 13.2783 70.5677 13.4406C70.513 13.6029 70.4941 13.7751 70.5122 13.9454V16.9748H69.4902L69.4902 11.7965Z" fill="white"/>
<path d="M75.5156 9.77495H76.5376V16.9748H75.5156V9.77495Z" fill="white"/>
<path d="M77.9583 14.3834C77.9258 14.0431 77.9647 13.6997 78.0727 13.3753C78.1806 13.0509 78.3552 12.7527 78.5851 12.4997C78.8151 12.2467 79.0954 12.0446 79.408 11.9063C79.7207 11.7679 80.0588 11.6965 80.4006 11.6965C80.7425 11.6965 81.0806 11.7679 81.3933 11.9063C81.7059 12.0446 81.9862 12.2467 82.2162 12.4997C82.4461 12.7527 82.6207 13.0509 82.7286 13.3753C82.8366 13.6997 82.8755 14.0431 82.843 14.3834C82.8761 14.7241 82.8376 15.0679 82.7299 15.3928C82.6223 15.7177 82.4478 16.0165 82.2178 16.27C81.9878 16.5234 81.7073 16.726 81.3944 16.8646C81.0814 17.0032 80.7429 17.0748 80.4006 17.0748C80.0584 17.0748 79.7199 17.0032 79.4069 16.8646C79.094 16.726 78.8135 16.5234 78.5835 16.27C78.3534 16.0165 78.179 15.7177 78.0713 15.3928C77.9637 15.0679 77.9252 14.7241 77.9583 14.3834ZM81.7912 14.3834C81.7912 13.2609 81.287 12.6045 80.402 12.6045C79.5137 12.6045 79.014 13.2609 79.014 14.3834C79.014 15.5149 79.5138 16.1662 80.402 16.1662C81.287 16.1662 81.7912 15.5104 81.7912 14.3834H81.7912Z" fill="white"/>
<path d="M83.9189 15.5103C83.9189 14.5782 84.613 14.0408 85.845 13.9645L87.2476 13.8836V13.4366C87.2476 12.8897 86.886 12.5809 86.1875 12.5809C85.617 12.5809 85.2217 12.7903 85.1082 13.1564H84.1188C84.2233 12.267 85.06 11.6965 86.2347 11.6965C87.5329 11.6965 88.2651 12.3428 88.2651 13.4366V16.9748H87.2813V16.2471H87.2005C87.0364 16.5081 86.8059 16.7209 86.5326 16.8637C86.2594 17.0066 85.9531 17.0743 85.6451 17.0601C85.4277 17.0827 85.208 17.0595 85.0001 16.992C84.7922 16.9245 84.6008 16.8142 84.4382 16.6682C84.2755 16.5222 84.1453 16.3437 84.0559 16.1443C83.9664 15.9448 83.9198 15.7289 83.9189 15.5103ZM87.2476 15.0679V14.6349L85.9831 14.7158C85.27 14.7635 84.9465 15.0061 84.9465 15.4626C84.9465 15.9287 85.3508 16.1999 85.9068 16.1999C86.0697 16.2164 86.2342 16.1999 86.3906 16.1515C86.547 16.1031 86.6921 16.0237 86.8172 15.9181C86.9423 15.8125 87.0449 15.6828 87.1188 15.5367C87.1928 15.3907 87.2366 15.2312 87.2476 15.0679Z" fill="white"/>
<path d="M89.6089 14.3834C89.6089 12.7471 90.4501 11.7105 91.7584 11.7105C92.082 11.6956 92.4032 11.7731 92.6844 11.934C92.9656 12.0949 93.1952 12.3325 93.3464 12.619H93.4228V9.77495H94.4447V16.9748H93.4654V16.1566H93.3846C93.2217 16.4412 92.9841 16.6759 92.6975 16.8351C92.4108 16.9944 92.0861 17.0722 91.7584 17.0601C90.4411 17.0602 89.6089 16.0236 89.6089 14.3834ZM90.6646 14.3834C90.6646 15.4817 91.1823 16.1426 92.0482 16.1426C92.9095 16.1426 93.4419 15.4722 93.4419 14.3879C93.4419 13.3086 92.9039 12.6286 92.0482 12.6286C91.1879 12.6286 90.6645 13.294 90.6645 14.3834H90.6646Z" fill="white"/>
<path d="M98.6722 14.3835C98.6396 14.0431 98.6786 13.6998 98.7865 13.3754C98.8944 13.051 99.0689 12.7528 99.2989 12.4998C99.5288 12.2468 99.8091 12.0447 100.122 11.9064C100.434 11.7681 100.772 11.6966 101.114 11.6966C101.456 11.6966 101.794 11.7681 102.107 11.9064C102.419 12.0447 102.7 12.2468 102.93 12.4998C103.16 12.7528 103.334 13.051 103.442 13.3754C103.55 13.6998 103.589 14.0431 103.556 14.3835C103.589 14.7241 103.551 15.0679 103.443 15.3928C103.336 15.7177 103.161 16.0165 102.931 16.27C102.701 16.5235 102.421 16.726 102.108 16.8646C101.795 17.0033 101.457 17.0749 101.114 17.0749C100.772 17.0749 100.434 17.0033 100.121 16.8646C99.8076 16.726 99.5271 16.5235 99.2972 16.27C99.0672 16.0165 98.8927 15.7177 98.7851 15.3928C98.6775 15.0679 98.639 14.7241 98.6722 14.3835ZM102.505 14.3835C102.505 13.261 102.001 12.6046 101.116 12.6046C100.228 12.6046 99.7279 13.261 99.7279 14.3835C99.7279 15.5149 100.228 16.1663 101.116 16.1663C102.001 16.1663 102.505 15.5104 102.505 14.3835Z" fill="white"/>
<path d="M104.928 11.7965H105.912V12.6191H105.988C106.118 12.3237 106.336 12.076 106.613 11.9106C106.89 11.7452 107.212 11.6704 107.534 11.6965C107.786 11.6776 108.039 11.7156 108.274 11.8077C108.509 11.8998 108.721 12.0437 108.893 12.2286C109.065 12.4136 109.193 12.6349 109.268 12.8762C109.343 13.1175 109.363 13.3726 109.326 13.6225V16.9748H108.304V13.8792C108.304 13.047 107.942 12.6332 107.187 12.6332C107.016 12.6252 106.845 12.6543 106.686 12.7185C106.527 12.7827 106.384 12.8805 106.267 13.0051C106.149 13.1298 106.06 13.2783 106.006 13.4406C105.951 13.6029 105.932 13.7751 105.95 13.9454V16.9748H104.928V11.7965Z" fill="white"/>
<path d="M115.101 10.5072V11.82H116.223V12.6808H115.101V15.3436C115.101 15.886 115.325 16.1235 115.833 16.1235C115.963 16.1231 116.094 16.1152 116.223 16.0999V16.9512C116.039 16.984 115.853 17.0015 115.667 17.0034C114.531 17.0034 114.078 16.6036 114.078 15.6052V12.6808H113.256V11.82H114.078V10.5072H115.101Z" fill="white"/>
<path d="M117.619 9.77495H118.632V12.6286H118.712C118.848 12.3304 119.073 12.0813 119.355 11.9153C119.638 11.7493 119.965 11.6745 120.291 11.701C120.542 11.6873 120.793 11.7292 121.025 11.8235C121.258 11.9179 121.467 12.0624 121.637 12.2468C121.808 12.4312 121.935 12.6509 122.011 12.8902C122.086 13.1296 122.108 13.3827 122.075 13.6315V16.9748H121.052V13.8836C121.052 13.0565 120.667 12.6376 119.945 12.6376C119.769 12.6232 119.592 12.6473 119.427 12.7083C119.262 12.7693 119.111 12.8657 118.987 12.9908C118.863 13.1158 118.768 13.2665 118.708 13.4323C118.648 13.598 118.625 13.7749 118.641 13.9504V16.9748H117.619L117.619 9.77495Z" fill="white"/>
<path d="M128.034 15.5765C127.895 16.0498 127.594 16.4592 127.184 16.7331C126.774 17.0069 126.28 17.1279 125.79 17.0747C125.449 17.0837 125.11 17.0183 124.797 16.8832C124.483 16.748 124.203 16.5463 123.975 16.292C123.748 16.0377 123.578 15.7369 123.479 15.4105C123.379 15.0841 123.351 14.7399 123.398 14.4018C123.353 14.0627 123.381 13.7178 123.48 13.3904C123.58 13.0631 123.748 12.7609 123.975 12.5044C124.201 12.2478 124.48 12.0429 124.792 11.9035C125.105 11.7641 125.444 11.6935 125.786 11.6964C127.227 11.6964 128.096 12.6808 128.096 14.3069V14.6635H124.439V14.7208C124.423 14.9108 124.447 15.1021 124.509 15.2824C124.571 15.4626 124.671 15.6279 124.801 15.7676C124.93 15.9072 125.088 16.0182 125.263 16.0935C125.438 16.1687 125.628 16.2064 125.818 16.2043C126.063 16.2336 126.31 16.1896 126.53 16.0778C126.749 15.966 126.93 15.7915 127.05 15.5765L128.034 15.5765ZM124.439 13.9077H127.055C127.068 13.7339 127.044 13.5593 126.985 13.3952C126.927 13.2311 126.834 13.081 126.714 12.9547C126.594 12.8284 126.449 12.7285 126.288 12.6616C126.127 12.5947 125.954 12.5622 125.78 12.5662C125.603 12.564 125.428 12.5972 125.264 12.6638C125.1 12.7305 124.952 12.8292 124.827 12.9542C124.702 13.0793 124.603 13.228 124.536 13.3918C124.47 13.5555 124.437 13.731 124.439 13.9077H124.439Z" fill="white"/>
<path d="M30.2549 23.8776C30.2685 22.8197 30.5495 21.7825 31.0717 20.8624C31.594 19.9422 32.3404 19.1692 33.2417 18.6151C32.6692 17.7974 31.9138 17.1244 31.0357 16.6497C30.1576 16.175 29.1809 15.9115 28.1831 15.8803C26.0548 15.6569 23.9914 17.1539 22.9068 17.1539C21.8013 17.1539 20.1314 15.9025 18.3332 15.9395C17.1701 15.9771 16.0366 16.3153 15.0431 16.9212C14.0495 17.5271 13.2299 18.3801 12.664 19.3969C10.2128 23.6409 12.0412 29.8781 14.3893 33.3086C15.5641 34.9884 16.9371 36.8648 18.7336 36.7983C20.4917 36.7254 21.1483 35.6772 23.2704 35.6772C25.3728 35.6772 25.9888 36.7983 27.8218 36.756C29.7082 36.7253 30.8968 35.0687 32.0304 33.373C32.8745 32.176 33.524 30.8532 33.9549 29.4534C32.8589 28.9898 31.9236 28.2139 31.2657 27.2224C30.6077 26.2309 30.2562 25.0676 30.2549 23.8776Z" fill="white"/>
<path d="M26.7926 13.6242C27.8212 12.3894 28.3279 10.8024 28.2052 9.2C26.6338 9.36505 25.1822 10.1161 24.1397 11.3035C23.63 11.8835 23.2397 12.5584 22.9909 13.2894C22.7422 14.0204 22.64 14.7933 22.6901 15.5639C23.4761 15.572 24.2537 15.4016 24.9643 15.0656C25.6749 14.7296 26.3001 14.2368 26.7926 13.6242Z" fill="white"/>
</svg>
