<svg width="135" height="40" viewBox="0 0 135 40" fill="none" xmlns="http://www.w3.org/2000/svg">
<g clip-path="url(#clip0_402_84)">
<path d="M124.249 -7.3291e-06H10.7566C10.3429 -7.3291e-06 9.9342 -7.32904e-06 9.5216 0.00199267C9.17621 0.00399267 8.83358 0.00980267 8.48488 0.0146927C7.72734 0.0225945 6.97157 0.0816689 6.22416 0.191403C5.4778 0.303525 4.75482 0.514908 4.07967 0.818403C3.40534 1.12446 2.7892 1.52216 2.25358 1.99706C1.71514 2.47063 1.26632 3.01801 0.924356 3.61815C0.581453 4.2171 0.343683 4.85893 0.219258 5.52147C0.0936495 6.18318 0.0260586 6.85251 0.0170916 7.52347C0.00662229 7.83007 0.00551669 8.13769 0 8.44433V31.5586C0.00551669 31.8691 0.00662229 32.1699 0.0170916 32.4805C0.0260614 33.1514 0.0936522 33.8207 0.219258 34.4824C0.343339 35.1453 0.581124 35.7875 0.924356 36.3867C1.26616 36.9849 1.71505 37.5301 2.25358 38.001C2.78717 38.478 3.40371 38.876 4.07967 39.1797C4.75481 39.484 5.47772 39.6966 6.22416 39.8105C6.9717 39.9193 7.72738 39.9784 8.48488 39.9873C8.83358 39.9941 9.17621 39.998 9.5216 39.998C9.93419 40 10.343 40 10.7566 40H124.249C124.655 40 125.067 40 125.472 39.998C125.816 39.998 126.169 39.9941 126.512 39.9873C127.268 39.9789 128.023 39.9198 128.769 39.8105C129.518 39.6958 130.243 39.4833 130.921 39.1797C131.597 38.8758 132.213 38.4778 132.746 38.001C133.283 37.5282 133.733 36.9834 134.079 36.3867C134.42 35.7871 134.655 35.1449 134.777 34.4824C134.903 33.8206 134.973 33.1515 134.987 32.4805C134.991 32.1699 134.991 31.8691 134.991 31.5586C135 31.1953 135 30.834 135 30.4648V9.53612C135 9.16991 135 8.80663 134.991 8.44433C134.991 8.13769 134.991 7.83007 134.987 7.52343C134.973 6.85242 134.903 6.18323 134.777 5.52143C134.655 4.85927 134.419 4.2175 134.079 3.61811C133.383 2.41519 132.278 1.43602 130.921 0.818313C130.243 0.51556 129.518 0.304233 128.769 0.191313C128.023 0.0810955 127.269 0.0220004 126.512 0.0145527C126.169 0.00967267 125.816 0.00381267 125.472 0.00186267C125.067 -0.000137329 124.655 -0.000137329 124.249 -0.000137329V-7.3291e-06Z" fill="black"/>
<path d="M9.52707 39.125C9.18335 39.125 8.84792 39.1211 8.50689 39.1143C7.80042 39.1061 7.0956 39.0516 6.39821 38.9512C5.74792 38.8519 5.11798 38.6673 4.52914 38.4033C3.94571 38.1415 3.41356 37.7983 2.9531 37.3867C2.48598 36.98 2.09708 36.5082 1.80181 35.9902C1.50328 35.4688 1.29669 34.9099 1.18922 34.333C1.07316 33.7131 1.01036 33.0863 1.00138 32.458C0.994227 32.2471 0.984863 31.5449 0.984863 31.5449V8.44434C0.984863 8.44434 0.994836 7.75293 1.00144 7.5498C1.01004 6.92248 1.07247 6.29665 1.18818 5.67773C1.29585 5.09925 1.50261 4.53875 1.80129 4.01563C2.09547 3.49794 2.48222 3.02586 2.94653 2.61768C3.41032 2.20562 3.94416 1.8606 4.52859 1.59521C5.11607 1.33209 5.74483 1.14873 6.3938 1.05127C7.09348 0.949836 7.80074 0.894996 8.50967 0.88721L9.52763 0.875H125.467L126.497 0.8877C127.199 0.895099 127.9 0.94945 128.593 1.05029C129.249 1.14898 129.884 1.33362 130.479 1.59814C131.649 2.13299 132.602 2.97916 133.203 4.01807C133.497 4.53758 133.701 5.09351 133.807 5.66699C133.924 6.29099 133.989 6.92174 134.003 7.5542C134.006 7.8374 134.006 8.1416 134.006 8.44434C134.015 8.81934 134.015 9.17627 134.015 9.53613V30.4648C134.015 30.8281 134.015 31.1826 134.006 31.54C134.006 31.8652 134.006 32.1631 134.002 32.4697C133.989 33.0909 133.924 33.7104 133.809 34.3232C133.704 34.9043 133.498 35.4675 133.2 35.9932C132.902 36.5056 132.516 36.9733 132.054 37.3789C131.593 37.7927 131.06 38.1379 130.475 38.4014C129.883 38.6674 129.248 38.8527 128.593 38.9512C127.896 39.0522 127.191 39.1067 126.485 39.1143C126.154 39.1211 125.808 39.125 125.472 39.125L124.249 39.127L9.52707 39.125Z" fill="white"/>
<path d="M53.6758 28.2686H49.0621L47.9542 31.6251H46L50.37 19.2071H52.4003L56.7703 31.6251H54.7828L53.6758 28.2686ZM49.54 26.7198H53.197L51.3942 21.2725H51.3437L49.54 26.7198Z" fill="black"/>
<path d="M66.2079 27.0987C66.2079 29.9122 64.7402 31.7198 62.5252 31.7198C61.9641 31.7499 61.4061 31.6173 60.915 31.3372C60.424 31.057 60.0197 30.6407 59.7486 30.1358H59.7067V34.6202H57.8953V22.5713H59.6486V24.0772H59.682C59.9656 23.5747 60.3766 23.1605 60.8714 22.8787C61.3662 22.5969 61.9262 22.4579 62.4918 22.4766C64.7316 22.4766 66.2079 24.293 66.2079 27.0987ZM64.3461 27.0987C64.3461 25.2657 63.4228 24.0606 62.014 24.0606C60.63 24.0606 59.6991 25.2911 59.6991 27.0987C59.6991 28.9229 60.63 30.1446 62.014 30.1446C63.4228 30.1446 64.346 28.9483 64.346 27.0987H64.3461Z" fill="black"/>
<path d="M75.9211 27.0987C75.9211 29.9122 74.4529 31.7198 72.2379 31.7198C71.6768 31.7499 71.1188 31.6173 70.6277 31.3372C70.1367 31.057 69.7325 30.6407 69.4613 30.1358H69.4194V34.6202H67.608V22.5713H69.3614V24.0772H69.3947C69.6783 23.5747 70.0893 23.1605 70.5841 22.8787C71.0789 22.5969 71.6389 22.4579 72.2045 22.4766C74.4443 22.4766 75.9211 24.293 75.9211 27.0987ZM74.0588 27.0987C74.0588 25.2657 73.1355 24.0606 71.7267 24.0606C70.3427 24.0606 69.4118 25.2911 69.4118 27.0987C69.4118 28.9229 70.3427 30.1446 71.7267 30.1446C73.1355 30.1446 74.0588 28.9483 74.0588 27.0987V27.0987Z" fill="black"/>
<path d="M82.3395 28.1651C82.4737 29.3965 83.6397 30.2051 85.2331 30.2051C86.7599 30.2051 87.8584 29.3965 87.8584 28.2861C87.8584 27.3223 87.1959 26.7451 85.6272 26.3496L84.0586 25.9619C81.836 25.4111 80.8042 24.3447 80.8042 22.6143C80.8042 20.4717 82.6241 19 85.2074 19C87.766 19 89.5194 20.4717 89.5784 22.6143H87.7498C87.6404 21.375 86.6419 20.627 85.1827 20.627C83.7235 20.627 82.725 21.3838 82.725 22.4854C82.725 23.3633 83.3627 23.8799 84.9228 24.2754L86.2564 24.6113C88.7398 25.2138 89.7706 26.2373 89.7706 28.0537C89.7706 30.3769 87.9678 31.832 85.0989 31.832C82.4146 31.832 80.6023 30.4111 80.4852 28.165L82.3395 28.1651Z" fill="black"/>
<path d="M93.6818 20.4288V22.5713H95.36V24.043H93.6818V29.0342C93.6818 29.8096 94.0179 30.1709 94.7555 30.1709C94.9548 30.1674 95.1537 30.153 95.3514 30.1279V31.5908C95.0197 31.6544 94.6826 31.6832 94.3453 31.6768C92.5587 31.6768 91.8619 30.9883 91.8619 29.2324V24.043H90.5788V22.5713H91.8619V20.4288H93.6818Z" fill="black"/>
<path d="M96.3309 27.0987C96.3309 24.2501 97.9662 22.46 100.516 22.46C103.075 22.46 104.702 24.25 104.702 27.0987C104.702 29.9551 103.083 31.7374 100.516 31.7374C97.95 31.7374 96.3309 29.9551 96.3309 27.0987ZM102.857 27.0987C102.857 25.1446 101.984 23.9913 100.516 23.9913C99.0484 23.9913 98.1756 25.1534 98.1756 27.0987C98.1756 29.0606 99.0484 30.2051 100.516 30.2051C101.984 30.2051 102.857 29.0606 102.857 27.0987H102.857Z" fill="black"/>
<path d="M106.196 22.5713H107.923V24.1123H107.965C108.082 23.631 108.357 23.2057 108.744 22.9078C109.13 22.6099 109.605 22.4577 110.088 22.4766C110.297 22.4758 110.505 22.4991 110.709 22.5459V24.2842C110.445 24.2016 110.17 24.1637 109.895 24.1719C109.632 24.161 109.369 24.2086 109.126 24.3115C108.882 24.4143 108.663 24.5701 108.484 24.768C108.305 24.9659 108.169 25.2012 108.087 25.4579C108.005 25.7146 107.977 25.9865 108.007 26.2549V31.625H106.196L106.196 22.5713Z" fill="black"/>
<path d="M119.06 28.9659C118.817 30.6094 117.256 31.7373 115.26 31.7373C112.693 31.7373 111.1 29.9727 111.1 27.1416C111.1 24.3018 112.702 22.46 115.184 22.46C117.626 22.46 119.161 24.1807 119.161 26.9258V27.5625H112.928V27.6748C112.9 28.008 112.94 28.3437 113.048 28.6596C113.155 28.9754 113.327 29.2642 113.551 29.5067C113.776 29.7493 114.048 29.94 114.35 30.0663C114.652 30.1926 114.976 30.2516 115.302 30.2393C115.73 30.2804 116.16 30.1787 116.527 29.9493C116.894 29.7199 117.179 29.3749 117.34 28.9659L119.06 28.9659ZM112.937 26.2637H117.349C117.365 25.9641 117.321 25.6643 117.219 25.3831C117.117 25.1019 116.959 24.8454 116.756 24.6296C116.553 24.4138 116.308 24.2435 116.038 24.1293C115.767 24.0151 115.477 23.9594 115.184 23.9659C114.889 23.9641 114.597 24.0222 114.324 24.1369C114.051 24.2517 113.803 24.4208 113.594 24.6344C113.385 24.848 113.219 25.102 113.107 25.3816C112.994 25.6613 112.936 25.9611 112.937 26.2637V26.2637Z" fill="black"/>
<path d="M48.2367 8.294C48.6411 8.26604 49.0468 8.3249 49.4247 8.46634C49.8026 8.60777 50.1432 8.82825 50.4219 9.11187C50.7006 9.3955 50.9106 9.7352 51.0366 10.1065C51.1626 10.4777 51.2015 10.8713 51.1505 11.2588C51.1505 13.1651 50.0813 14.2608 48.2367 14.2608H46V8.294H48.2367ZM46.9618 13.417H48.1293C48.4182 13.4336 48.7074 13.388 48.9757 13.2834C49.244 13.1788 49.4847 13.0178 49.6803 12.8123C49.876 12.6067 50.0215 12.3617 50.1065 12.0951C50.1915 11.8284 50.2136 11.5469 50.1715 11.271C50.2106 10.9962 50.1861 10.7164 50.0999 10.4517C50.0136 10.1871 49.8677 9.94407 49.6725 9.74014C49.4773 9.53621 49.2378 9.3764 48.971 9.27216C48.7042 9.16792 48.4168 9.12184 48.1293 9.13721H46.9618V13.417Z" fill="black"/>
<path d="M52.2369 12.0073C52.2075 11.7114 52.2427 11.4129 52.3401 11.1308C52.4375 10.8487 52.5949 10.5894 52.8024 10.3694C53.0099 10.1494 53.2629 9.97364 53.545 9.85336C53.8271 9.73309 54.1322 9.67096 54.4407 9.67096C54.7492 9.67096 55.0543 9.73309 55.3365 9.85336C55.6186 9.97364 55.8715 10.1494 56.079 10.3694C56.2865 10.5894 56.444 10.8487 56.5414 11.1308C56.6388 11.4129 56.6739 11.7114 56.6445 12.0073C56.6745 12.3036 56.6398 12.6025 56.5426 12.8851C56.4455 13.1676 56.2881 13.4274 56.0805 13.6478C55.873 13.8682 55.6199 14.0444 55.3375 14.1649C55.0551 14.2854 54.7496 14.3477 54.4407 14.3477C54.1319 14.3477 53.8264 14.2854 53.544 14.1649C53.2616 14.0444 53.0085 13.8682 52.8009 13.6478C52.5934 13.4274 52.436 13.1676 52.3388 12.8851C52.2417 12.6025 52.207 12.3036 52.2369 12.0073V12.0073ZM55.6959 12.0073C55.6959 11.0313 55.2409 10.4605 54.4422 10.4605C53.6406 10.4605 53.1896 11.0313 53.1896 12.0073C53.1896 12.9912 53.6406 13.5576 54.4422 13.5576C55.2409 13.5576 55.6959 12.9873 55.6959 12.0073H55.6959Z" fill="black"/>
<path d="M62.5034 14.2608H61.5467L60.5809 10.9443H60.5079L59.5461 14.2608H58.5985L57.3104 9.75783H58.2458L59.0829 13.1938H59.1519L60.1126 9.75783H60.9974L61.9582 13.1938H62.0311L62.8642 9.75783H63.7865L62.5034 14.2608Z" fill="black"/>
<path d="M64.8699 9.75783H65.7577V10.4732H65.8266C65.9435 10.2162 66.1407 10.0009 66.3907 9.85706C66.6406 9.71325 66.931 9.64818 67.2211 9.67091C67.4485 9.65443 67.6768 9.68747 67.8892 9.76756C68.1015 9.84766 68.2924 9.97276 68.4477 10.1336C68.6031 10.2945 68.7189 10.4869 68.7865 10.6967C68.8542 10.9066 68.872 11.1284 68.8386 11.3457V14.2607H67.9164V11.5689C67.9164 10.8452 67.59 10.4854 66.908 10.4854C66.7536 10.4784 66.5995 10.5038 66.4562 10.5596C66.3129 10.6154 66.1839 10.7004 66.0779 10.8088C65.9719 10.9172 65.8915 11.0464 65.8422 11.1875C65.7929 11.3287 65.7758 11.4784 65.7921 11.6265V14.2608H64.8699L64.8699 9.75783Z" fill="black"/>
<path d="M70.3082 8H71.2305V14.2607H70.3082V8Z" fill="black"/>
<path d="M72.5125 12.0073C72.4831 11.7114 72.5183 11.4128 72.6157 11.1307C72.7131 10.8487 72.8706 10.5893 73.0781 10.3693C73.2857 10.1493 73.5386 9.97357 73.8207 9.85329C74.1029 9.73301 74.408 9.67088 74.7165 9.67088C75.0251 9.67088 75.3302 9.73301 75.6123 9.85329C75.8945 9.97357 76.1474 10.1493 76.3549 10.3693C76.5625 10.5893 76.72 10.8487 76.8174 11.1307C76.9148 11.4128 76.9499 11.7114 76.9206 12.0073C76.9505 12.3036 76.9157 12.6026 76.8186 12.8851C76.7214 13.1676 76.564 13.4274 76.3564 13.6478C76.1488 13.8682 75.8957 14.0444 75.6133 14.1649C75.3309 14.2854 75.0254 14.3477 74.7165 14.3477C74.4077 14.3477 74.1022 14.2854 73.8198 14.1649C73.5373 14.0444 73.2842 13.8682 73.0766 13.6478C72.8691 13.4274 72.7116 13.1676 72.6145 12.8851C72.5173 12.6026 72.4826 12.3036 72.5125 12.0073V12.0073ZM75.9715 12.0073C75.9715 11.0313 75.5164 10.4605 74.7178 10.4605C73.9161 10.4605 73.4652 11.0313 73.4652 12.0074C73.4652 12.9912 73.9162 13.5576 74.7178 13.5576C75.5164 13.5576 75.9715 12.9873 75.9715 12.0073H75.9715Z" fill="black"/>
<path d="M77.8915 12.9873C77.8915 12.1768 78.5179 11.7095 79.6296 11.6431L80.8955 11.5728V11.1841C80.8955 10.7085 80.5691 10.44 79.9388 10.44C79.4239 10.44 79.0672 10.6221 78.9648 10.9404H78.0719C78.1662 10.167 78.9212 9.67091 79.9813 9.67091C81.1529 9.67091 81.8137 10.2329 81.8137 11.1841V14.2608H80.9259V13.6279H80.8529C80.7048 13.8549 80.4968 14.04 80.2502 14.1642C80.0036 14.2884 79.7272 14.3473 79.4493 14.3349C79.2531 14.3546 79.0548 14.3344 78.8672 14.2757C78.6796 14.217 78.5069 14.1211 78.3601 13.9941C78.2133 13.8672 78.0958 13.712 78.0151 13.5386C77.9344 13.3652 77.8923 13.1774 77.8915 12.9873V12.9873ZM80.8955 12.6025V12.2261L79.7543 12.2964C79.1107 12.3379 78.8189 12.5488 78.8189 12.9458C78.8189 13.3511 79.1837 13.5869 79.6854 13.5869C79.8324 13.6013 79.9809 13.587 80.1221 13.5449C80.2632 13.5028 80.3941 13.4338 80.507 13.3419C80.6199 13.2501 80.7125 13.1373 80.7792 13.0103C80.846 12.8832 80.8855 12.7446 80.8955 12.6025V12.6025Z" fill="black"/>
<path d="M83.0258 12.0073C83.0258 10.5845 83.7849 9.68312 84.9655 9.68312C85.2576 9.67015 85.5475 9.73756 85.8012 9.87745C86.055 10.0173 86.2622 10.224 86.3986 10.4731H86.4675V8H87.3898V14.2607H86.506V13.5493H86.4331C86.2861 13.7968 86.0717 14.0008 85.813 14.1393C85.5543 14.2778 85.2613 14.3455 84.9656 14.3349C83.7767 14.335 83.0258 13.4336 83.0258 12.0073ZM83.9785 12.0073C83.9785 12.9624 84.4457 13.5371 85.2271 13.5371C86.0044 13.5371 86.4848 12.9541 86.4848 12.0112C86.4848 11.0728 85.9993 10.4815 85.2271 10.4815C84.4507 10.4815 83.9784 11.0601 83.9784 12.0073H83.9785Z" fill="black"/>
<path d="M91.2056 12.0073C91.1762 11.7114 91.2113 11.4129 91.3087 11.1308C91.4061 10.8487 91.5636 10.5894 91.7711 10.3694C91.9786 10.1494 92.2315 9.97364 92.5136 9.85336C92.7957 9.73309 93.1009 9.67096 93.4094 9.67096C93.7179 9.67096 94.023 9.73309 94.3051 9.85336C94.5872 9.97364 94.8401 10.1494 95.0476 10.3694C95.2551 10.5894 95.4126 10.8487 95.51 11.1308C95.6074 11.4129 95.6425 11.7114 95.6132 12.0073C95.6431 12.3036 95.6084 12.6025 95.5112 12.8851C95.4141 13.1676 95.2567 13.4274 95.0492 13.6478C94.8416 13.8682 94.5885 14.0444 94.3061 14.1649C94.0237 14.2854 93.7182 14.3477 93.4094 14.3477C93.1005 14.3477 92.795 14.2854 92.5126 14.1649C92.2302 14.0444 91.9771 13.8682 91.7695 13.6478C91.562 13.4274 91.4046 13.1676 91.3075 12.8851C91.2103 12.6025 91.1756 12.3036 91.2056 12.0073V12.0073ZM94.6645 12.0073C94.6645 11.0313 94.2095 10.4605 93.4109 10.4605C92.6092 10.4605 92.1583 11.0313 92.1583 12.0073C92.1583 12.9912 92.6092 13.5576 93.4109 13.5576C94.2095 13.5576 94.6645 12.9873 94.6645 12.0073Z" fill="black"/>
<path d="M96.8506 9.75783H97.7384V10.4732H97.8073C97.9242 10.2162 98.1214 10.0009 98.3714 9.85706C98.6214 9.71325 98.9117 9.64818 99.2019 9.67091C99.4292 9.65443 99.6575 9.68747 99.8699 9.76756C100.082 9.84766 100.273 9.97276 100.428 10.1336C100.584 10.2945 100.7 10.4869 100.767 10.6967C100.835 10.9066 100.853 11.1284 100.819 11.3457V14.2607H99.8971V11.5689C99.8971 10.8452 99.5708 10.4854 98.8887 10.4854C98.7343 10.4784 98.5802 10.5038 98.4369 10.5596C98.2936 10.6154 98.1646 10.7004 98.0586 10.8088C97.9526 10.9172 97.8722 11.0464 97.8229 11.1875C97.7736 11.3287 97.7565 11.4784 97.7728 11.6265V14.2608H96.8506V9.75783Z" fill="black"/>
<path d="M106.031 8.63673V9.77833H107.043V10.5269H106.031V12.8423C106.031 13.314 106.232 13.5205 106.691 13.5205C106.809 13.5202 106.926 13.5133 107.043 13.5V14.2402C106.878 14.2688 106.71 14.284 106.541 14.2857C105.516 14.2857 105.107 13.938 105.107 13.0698V10.5268H104.366V9.77829H105.107V8.63673H106.031Z" fill="black"/>
<path d="M108.303 8H109.217V10.4815H109.29C109.413 10.2221 109.615 10.0055 109.87 9.86119C110.125 9.71684 110.42 9.65176 110.715 9.67481C110.941 9.66295 111.167 9.69934 111.377 9.78138C111.587 9.86342 111.776 9.9891 111.929 10.1494C112.083 10.3098 112.198 10.5008 112.266 10.709C112.335 10.9171 112.354 11.1372 112.324 11.3535V14.2607H111.401V11.5728C111.401 10.8535 111.053 10.4893 110.402 10.4893C110.243 10.4767 110.084 10.4977 109.935 10.5508C109.785 10.6038 109.65 10.6877 109.538 10.7964C109.426 10.9051 109.34 11.0362 109.286 11.1803C109.232 11.3244 109.211 11.4782 109.225 11.6308V14.2607H108.303L108.303 8Z" fill="black"/>
<path d="M117.702 13.0449C117.576 13.4565 117.305 13.8125 116.935 14.0506C116.565 14.2888 116.119 14.3939 115.677 14.3477C115.369 14.3555 115.063 14.2987 114.78 14.1811C114.497 14.0636 114.245 13.8882 114.039 13.6671C113.834 13.4459 113.681 13.1844 113.591 12.9005C113.501 12.6167 113.476 12.3174 113.518 12.0235C113.477 11.7286 113.502 11.4286 113.592 11.144C113.682 10.8593 113.834 10.5965 114.038 10.3734C114.243 10.1504 114.494 9.9722 114.776 9.851C115.058 9.72979 115.364 9.66838 115.673 9.67091C116.973 9.67091 117.758 10.5269 117.758 11.9409V12.251H114.458V12.3008C114.443 12.466 114.465 12.6324 114.521 12.7891C114.577 12.9459 114.667 13.0896 114.784 13.211C114.901 13.3325 115.043 13.429 115.201 13.4944C115.36 13.5598 115.53 13.5926 115.702 13.5908C115.923 13.6163 116.146 13.578 116.344 13.4808C116.542 13.3836 116.706 13.2319 116.814 13.0449L117.702 13.0449ZM114.458 11.5938H116.818C116.83 11.4426 116.808 11.2908 116.755 11.1481C116.703 11.0054 116.619 10.8749 116.511 10.7651C116.403 10.6552 116.272 10.5684 116.126 10.5102C115.981 10.452 115.825 10.4238 115.668 10.4273C115.508 10.4253 115.35 10.4542 115.202 10.5121C115.054 10.5701 114.92 10.6559 114.807 10.7647C114.695 10.8734 114.606 11.0027 114.546 11.1451C114.485 11.2875 114.456 11.4401 114.458 11.5938H114.458Z" fill="black"/>
<path d="M25.9965 19.8894C26.0077 19.0214 26.2383 18.1704 26.6667 17.4154C27.0952 16.6605 27.7077 16.0263 28.4471 15.5716C27.9774 14.9007 27.3576 14.3486 26.6372 13.9591C25.9167 13.5696 25.1153 13.3535 24.2967 13.3279C22.5505 13.1446 20.8576 14.3728 19.9677 14.3728C19.0607 14.3728 17.6906 13.3461 16.2153 13.3764C15.261 13.4073 14.331 13.6848 13.5158 14.1819C12.7007 14.679 12.0282 15.3788 11.5639 16.2131C9.55278 19.6951 11.0529 24.8125 12.9794 27.6271C13.9433 29.0054 15.0698 30.5449 16.5438 30.4903C17.9862 30.4305 18.5249 29.5705 20.266 29.5705C21.9909 29.5705 22.4963 30.4903 24.0003 30.4556C25.548 30.4305 26.5232 29.0712 27.4533 27.6799C28.1458 26.6979 28.6787 25.6125 29.0323 24.4641C28.133 24.0837 27.3657 23.4471 26.8258 22.6336C26.286 21.8201 25.9976 20.8657 25.9965 19.8894Z" fill="black"/>
<path d="M23.156 11.4768C23.9999 10.4637 24.4156 9.1616 24.315 7.84692C23.0257 7.98234 21.8347 8.59854 20.9794 9.57274C20.5612 10.0487 20.241 10.6023 20.0369 11.2021C19.8328 11.8019 19.7489 12.436 19.7901 13.0682C20.435 13.0749 21.0729 12.9351 21.656 12.6594C22.239 12.3838 22.7519 11.9794 23.156 11.4768V11.4768Z" fill="black"/>
</g>
<defs>
<clipPath id="clip0_402_84">
<rect width="135" height="40" fill="white"/>
</clipPath>
</defs>
</svg>
