<svg width="347" height="351" viewBox="0 0 347 351" fill="none" xmlns="http://www.w3.org/2000/svg">
<path d="M340.261 178.752C349.51 281.087 288.922 346 178.695 346C81.1376 346 5.12109 287.701 5.12109 180.39C5.12109 139.828 19.0763 105.777 29.2129 78.7353C39.3496 51.6941 25.7651 20.9624 46.4522 8.89043C67.1393 -3.18154 88.335 25.3773 120.788 42.6574C136.838 51.2113 141.027 52.5651 168.903 52.7634C172.445 52.7893 206.838 52.7979 211.216 52.7979C226.645 52.7979 237.23 50.6335 246.695 46.8826C261.012 41.2088 268.14 34.8107 275.381 29.9819C282.983 24.9116 289.327 20.4536 297.344 22.3765C304.567 24.1097 307.351 28.0245 309.17 33.362C314.635 49.3832 303.041 75.1655 309.204 84.0556C327.219 110.045 336.658 138.845 340.261 178.752Z" fill="white" stroke="black" stroke-width="10" stroke-miterlimit="10"/>
<path d="M261.374 194.083C261.356 193.893 260.796 189.97 260.753 189.763C258.503 179.088 243.876 177.872 235.265 179.174C226.887 180.433 213.328 185.952 214.793 196.661C214.871 197.213 215.19 199.283 215.259 199.834C218.396 222.711 263.296 216.899 261.374 194.083ZM238.273 197.23C230.265 198.429 223.378 196.722 222.887 193.428C222.396 190.134 228.481 186.486 236.489 185.296C244.496 184.098 251.384 185.805 251.875 189.099C252.366 192.393 246.281 196.032 238.273 197.23Z" fill="black"/>
<path fill-rule="evenodd" clip-rule="evenodd" d="M75.3451 205.034C77.4742 204.103 79.948 205.077 80.8789 207.198C97.0148 244.113 128.011 262.471 160.007 270.611C190.253 278.311 221.025 276.759 239.859 273.206V230.42C239.859 228.1 241.738 226.22 244.066 226.22C246.393 226.22 248.272 228.1 248.272 230.42V271.3C261.986 267.61 272.691 261.617 280.984 253.106C290.284 243.552 296.835 230.514 300.912 213.174C301.447 210.915 303.705 209.518 305.963 210.044C308.222 210.578 309.627 212.838 309.092 215.097C304.774 233.463 297.654 248.027 287 258.97C276.329 269.929 262.391 276.957 244.962 280.742C225.533 284.968 191.512 287.296 157.938 278.751C124.279 270.179 90.6622 250.545 73.1816 210.561C72.2507 208.44 73.2161 205.965 75.3451 205.034Z" fill="black"/>
<path fill-rule="evenodd" clip-rule="evenodd" d="M345.441 119.134C345.294 116.271 342.907 114.029 340.028 114.029H10.1718C7.31006 114.029 5 116.348 5 119.203V139.035C34.1774 139.035 66.6217 139.035 78.241 139.035C95.5664 139.035 101.152 181.287 173.902 179.562C219.792 178.476 222.887 139.897 241.074 139.897C259.262 139.897 256.667 170.939 303.437 170.939C335.011 170.939 346.156 133.111 345.441 119.134Z" fill="black"/>
</svg>
