<svg width="156" height="46" viewBox="0 0 156 46" fill="none" xmlns="http://www.w3.org/2000/svg">
<path fill-rule="evenodd" clip-rule="evenodd" d="M149.475 46H5.77485C2.59209 46 0 43.4075 0 40.25V5.75C0 2.58105 2.59209 0 5.77485 0H149.475C152.655 0 155.25 2.58105 155.25 5.75V40.25C155.25 43.4075 152.655 46 149.475 46Z" fill="black"/>
<path fill-rule="evenodd" clip-rule="evenodd" d="M149.475 0.920574C152.145 0.920574 154.33 3.09152 154.33 5.75V40.25C154.33 42.9085 152.159 45.0794 149.475 45.0794H5.77485C3.10534 45.0794 0.920421 42.9085 0.920421 40.25V5.75C0.920421 3.09152 3.09101 0.920574 5.77485 0.920574H149.475ZM149.475 0H5.77485C2.59209 0 0 2.59252 0 5.75V40.25C0 43.419 2.59209 46 5.77485 46H149.475C152.655 46 155.25 43.419 155.25 40.25V5.75C155.25 2.59252 152.655 0 149.475 0Z" fill="#A6A6A6"/>
<path d="M78.3563 25.0148C75.6516 25.0148 73.447 27.071 73.447 29.9057C73.447 32.7221 75.6516 34.7967 78.3563 34.7967C81.0611 34.7967 83.2657 32.7221 83.2657 29.9057C83.2657 27.071 81.0611 25.0148 78.3563 25.0148ZM78.3563 32.8704C76.874 32.8704 75.5952 31.648 75.5952 29.9057C75.5952 28.1451 76.874 26.941 78.3563 26.941C79.8387 26.941 81.1164 28.1451 81.1164 29.9057C81.1164 31.6468 79.8387 32.8704 78.3563 32.8704ZM67.6452 25.0148C64.9404 25.0148 62.7359 27.071 62.7359 29.9057C62.7359 32.7221 64.9404 34.7967 67.6452 34.7967C70.35 34.7967 72.5546 32.7221 72.5546 29.9057C72.5557 27.071 70.35 25.0148 67.6452 25.0148ZM67.6452 32.8704C66.1629 32.8704 64.8852 31.648 64.8852 29.9057C64.8852 28.1451 66.164 26.941 67.6452 26.941C69.1276 26.941 70.4052 28.1451 70.4052 29.9057C70.4064 31.6468 69.1276 32.8704 67.6452 32.8704ZM54.9055 26.5155V28.5901H59.8712C59.7229 29.7574 59.3342 30.6095 58.7408 31.2029C58.0186 31.9251 56.8881 32.7221 54.9055 32.7221C51.8488 32.7221 49.4591 30.2576 49.4591 27.2009C49.4591 24.1442 51.8488 21.6798 54.9055 21.6798C56.5546 21.6798 57.7587 22.3284 58.6476 23.1621L60.1116 21.6982C58.8707 20.5125 57.2216 19.604 54.9055 19.604C50.7184 19.604 47.1982 23.0126 47.1982 27.1998C47.1982 31.3869 50.7184 34.7955 54.9055 34.7955C57.1653 34.7955 58.8707 34.0549 60.2047 32.6646C61.5755 31.2938 62.0022 29.3664 62.0022 27.8104C62.0022 27.3286 61.9654 26.8835 61.8906 26.5132H54.9055V26.5155ZM107.01 28.1267C106.603 27.033 105.361 25.0136 102.823 25.0136C100.303 25.0136 98.21 26.9962 98.21 29.9046C98.21 32.6462 100.285 34.7955 103.064 34.7955C105.305 34.7955 106.603 33.4247 107.14 32.6278L105.472 31.5157C104.917 32.3311 104.157 32.8681 103.064 32.8681C101.97 32.8681 101.193 32.3679 100.693 31.3858L107.233 28.681L107.01 28.1267ZM100.34 29.7574C100.285 27.8679 101.804 26.9042 102.896 26.9042C103.748 26.9042 104.471 27.3297 104.712 27.9415L100.34 29.7574ZM95.0221 34.5H97.1715V20.1238H95.0221V34.5ZM91.502 26.1073H91.4284C90.9465 25.5334 90.0208 25.0136 88.8535 25.0136C86.4075 25.0136 84.1662 27.163 84.1662 29.923C84.1662 32.6646 86.4075 34.7955 88.8535 34.7955C90.0208 34.7955 90.9465 34.2769 91.4284 33.6835H91.502V34.3873C91.502 36.2583 90.5015 37.2588 88.8892 37.2588C87.5736 37.2588 86.7583 36.3135 86.4248 35.5177L84.5537 36.2963C85.0908 37.5935 86.5179 39.1862 88.8892 39.1862C91.4088 39.1862 93.5398 37.7039 93.5398 34.0917V25.3103H91.502V26.1073ZM89.0387 32.8704C87.5564 32.8704 86.3155 31.6296 86.3155 29.9241C86.3155 28.2014 87.5564 26.941 89.0387 26.941C90.5027 26.941 91.6503 28.2003 91.6503 29.9241C91.6503 31.6284 90.5027 32.8704 89.0387 32.8704ZM117.077 20.1238H111.935V34.5H114.08V29.0536H117.076C119.454 29.0536 121.792 27.332 121.792 24.5893C121.792 21.8465 119.455 20.1238 117.077 20.1238ZM117.132 27.0526H114.08V22.1248H117.132C118.736 22.1248 119.647 23.4531 119.647 24.5893C119.647 25.7025 118.736 27.0526 117.132 27.0526ZM130.394 24.9883C128.84 24.9883 127.231 25.6726 126.566 27.1894L128.471 27.9852C128.878 27.1894 129.636 26.9307 130.432 26.9307C131.542 26.9307 132.67 27.5965 132.688 28.7799V28.9282C132.299 28.7063 131.467 28.3728 130.45 28.3728C128.397 28.3728 126.307 29.5009 126.307 31.61C126.307 33.534 127.99 34.7725 129.876 34.7725C131.32 34.7725 132.114 34.1251 132.613 33.3672H132.687V34.477H134.758V28.965C134.758 26.412 132.854 24.9883 130.394 24.9883ZM130.134 32.867C129.431 32.867 128.45 32.5151 128.45 31.6468C128.45 30.5371 129.672 30.1116 130.725 30.1116C131.668 30.1116 132.112 30.3151 132.686 30.5923C132.52 31.924 131.374 32.867 130.134 32.867ZM142.304 25.3023L139.845 31.5353H139.771L137.219 25.3023H134.908L138.736 34.0135L136.553 38.8596H138.791L144.692 25.3023H142.304ZM122.976 34.5H125.122V20.1238H122.976V34.5Z" fill="white"/>
<path d="M23.8246 22.338L11.5806 35.333C11.5817 35.3353 11.5817 35.3376 11.5829 35.3399C11.9578 36.7521 13.2469 37.7905 14.7764 37.7905C15.3882 37.7905 15.9621 37.6249 16.4543 37.3351L16.4934 37.3121L30.275 29.3599L23.8246 22.338Z" fill="#EB4335"/>
<path d="M36.2116 20.1254L36.2001 20.1173L30.25 16.6673L23.5466 22.6324L30.273 29.3576L36.192 25.9432C37.2293 25.3832 37.9331 24.2895 37.9331 23.028C37.9331 21.7756 37.2385 20.6866 36.2116 20.1254Z" fill="#FABC13"/>
<path d="M11.5807 10.6689C11.5071 10.9403 11.468 11.2244 11.468 11.5199V34.482C11.468 34.7775 11.506 35.0627 11.5807 35.333L24.2457 22.6703L11.5807 10.6689Z" fill="#547DBF"/>
<path d="M23.9143 23.0004L30.252 16.665L16.4853 8.68402C15.9851 8.38387 15.402 8.21136 14.7764 8.21136C13.2469 8.21136 11.9566 9.25211 11.5806 10.6655V10.6689L23.9143 23.0004Z" fill="#30A851"/>
<path d="M54.4812 11.2597H51.137V12.0888H53.6429C53.575 12.7627 53.3048 13.2929 52.8528 13.6781C52.3997 14.0634 51.8213 14.2566 51.137 14.2566C50.3849 14.2566 49.749 13.9967 49.2292 13.4757C48.7186 12.9456 48.4575 12.2912 48.4575 11.5C48.4575 10.71 48.7186 10.0545 49.2292 9.5243C49.749 9.0045 50.3849 8.7446 51.137 8.7446C51.5223 8.7446 51.8891 8.8113 52.2261 8.9562C52.563 9.1011 52.8333 9.3035 53.0449 9.5634L53.6808 8.92745C53.3922 8.5997 53.0253 8.349 52.5734 8.16615C52.1203 7.9833 51.6476 7.8959 51.137 7.8959C50.1342 7.8959 49.2867 8.2432 48.5932 8.93665C47.8986 9.63125 47.5525 10.488 47.5525 11.5C47.5525 12.512 47.8986 13.3699 48.5932 14.0634C49.2867 14.758 50.1342 15.1041 51.137 15.1041C52.187 15.1041 53.0253 14.7672 53.6716 14.0829C54.2397 13.5148 54.5295 12.7432 54.5295 11.7795C54.5295 11.6162 54.51 11.4425 54.4812 11.2597Z" fill="white"/>
<path d="M55.8015 8.05001V14.95H59.8299V14.1025H56.6881V11.9152H59.5206V11.086H56.6881V8.89871H59.8299V8.05001H55.8015Z" fill="white"/>
<path d="M65.4948 8.89871V8.05001H60.7533V8.89871H62.6807V14.95H63.5674V8.89871H65.4948Z" fill="white"/>
<path d="M69.813 8.05001H68.9263V14.95H69.813V8.05001Z" fill="white"/>
<path d="M75.6723 8.89871V8.05001H70.9308V8.89871H72.8582V14.95H73.7449V8.89871H75.6723Z" fill="white"/>
<path d="M84.6446 8.947C83.9604 8.2432 83.122 7.8959 82.1192 7.8959C81.1175 7.8959 80.278 8.2432 79.5938 8.93665C78.9095 9.6209 78.5726 10.4788 78.5726 11.5C78.5726 12.5224 78.9095 13.3791 79.5938 14.0634C80.278 14.758 81.1175 15.1041 82.1192 15.1041C83.1116 15.1041 83.9604 14.758 84.6446 14.0634C85.3289 13.3791 85.6658 12.5224 85.6658 11.5C85.6658 10.488 85.3289 9.63125 84.6446 8.947ZM80.2309 9.5243C80.7415 9.0045 81.3671 8.7446 82.1192 8.7446C82.8713 8.7446 83.4969 9.0045 83.9983 9.5243C84.5089 10.0361 84.7596 10.7008 84.7596 11.5C84.7596 12.3004 84.5089 12.9651 83.9983 13.4757C83.4969 13.9967 82.8713 14.2566 82.1192 14.2566C81.3671 14.2566 80.7415 13.9967 80.2309 13.4757C79.7295 12.9559 79.4788 12.3004 79.4788 11.5C79.4788 10.7008 79.7295 10.0453 80.2309 9.5243Z" fill="white"/>
<path d="M87.7956 10.6525L87.7576 9.32191H87.7956L91.3043 14.95H92.2288V8.05001H91.3422V12.0888L91.3813 13.4182H91.3422L87.9888 8.05001H86.9101V14.95H87.7956V10.6525Z" fill="white"/>
</svg>
